<svg width="20" height="33" viewBox="0 0 20 33" fill="none" xmlns="http://www.w3.org/2000/svg">
<path d="M8.21429 2H5.10714C4.28308 2 3.49276 2.32736 2.91006 2.91006C2.32736 3.49276 2 4.28308 2 5.10714V27.8929C2 28.7169 2.32736 29.5072 2.91006 30.0899C3.49276 30.6726 4.28308 31 5.10714 31H15.4643C16.2884 31 17.0787 30.6726 17.6614 30.0899C18.2441 29.5072 18.5714 28.7169 18.5714 27.8929V5.10714C18.5714 4.28308 18.2441 3.49276 17.6614 2.91006C17.0787 2.32736 16.2884 2 15.4643 2H12.3571M8.21429 2V4.07143H12.3571V2M8.21429 2H12.3571H8.21429ZM8.21429 27.8929H12.3571H8.21429Z" fill="#43434A"/>
<path d="M8.21429 2H5.10714C4.28308 2 3.49276 2.32736 2.91006 2.91006C2.32736 3.49276 2 4.28308 2 5.10714V27.8929C2 28.7169 2.32736 29.5072 2.91006 30.0899C3.49276 30.6726 4.28308 31 5.10714 31H15.4643C16.2884 31 17.0787 30.6726 17.6614 30.0899C18.2441 29.5072 18.5714 28.7169 18.5714 27.8929V5.10714C18.5714 4.28308 18.2441 3.49276 17.6614 2.91006C17.0787 2.32736 16.2884 2 15.4643 2H12.3571M8.21429 2V4.07143H12.3571V2M8.21429 2H12.3571M8.21429 27.8929H12.3571" stroke="#7E7E86" stroke-width="2.8" stroke-linecap="round" stroke-linejoin="round"/>
</svg>
