<svg width="20" height="20" viewBox="0 0 20 20" fill="none" xmlns="http://www.w3.org/2000/svg">
<path d="M4.75 5.5L7.75 7.75L4.75 10M9.25 10H12.25M3.25 18.25H16.75C17.3467 18.25 17.919 18.0129 18.341 17.591C18.7629 17.169 19 16.5967 19 16V4C19 3.40326 18.7629 2.83097 18.341 2.40901C17.919 1.98705 17.3467 1.75 16.75 1.75H3.25C2.65326 1.75 2.08097 1.98705 1.65901 2.40901C1.23705 2.83097 1 3.40326 1 4V16C1 16.5967 1.23705 17.169 1.65901 17.591C2.08097 18.0129 2.65326 18.25 3.25 18.25Z" stroke="#7E7E86" stroke-width="2" stroke-linecap="round" stroke-linejoin="round"/>
</svg>
