<svg width="22" height="18" viewBox="0 0 22 18" fill="none" xmlns="http://www.w3.org/2000/svg">
<path d="M1.25 11.9999C1.25 13.1934 1.72411 14.338 2.56802 15.1819C3.41193 16.0258 4.55653 16.4999 5.75 16.4999H17C17.8778 16.5009 18.7282 16.1938 19.4029 15.6323C20.0776 15.0708 20.534 14.2903 20.6924 13.4269C20.8509 12.5635 20.7015 11.6719 20.2701 10.9073C19.8388 10.1428 19.1529 9.55378 18.332 9.24292C18.5176 8.71516 18.5519 8.14602 18.431 7.59979C18.3102 7.05356 18.039 6.552 17.6481 6.15176C17.2572 5.75153 16.7622 5.46856 16.219 5.33482C15.6758 5.20108 15.106 5.2219 14.574 5.39492C14.2299 4.07494 13.3856 2.94072 12.2198 2.23244C11.054 1.52415 9.65826 1.29743 8.32821 1.60027C6.99817 1.90312 5.83821 2.71175 5.09398 3.85494C4.34976 4.99812 4.0797 6.38609 4.341 7.72492C3.44158 8.02177 2.65869 8.59472 2.10374 9.36225C1.54879 10.1298 1.25004 11.0528 1.25 11.9999Z" stroke="#7E7E86" stroke-width="2" stroke-linecap="round" stroke-linejoin="round"/>
</svg>
