<svg width="29" height="33" viewBox="0 0 29 33" fill="none" xmlns="http://www.w3.org/2000/svg">
<path d="M27.2188 7.82812C27.2188 11.34 21.5238 14.1875 14.5 14.1875C7.47617 14.1875 1.78125 11.34 1.78125 7.82812M27.2188 7.82812C27.2188 4.31621 21.5238 1.46875 14.5 1.46875C7.47617 1.46875 1.78125 4.31621 1.78125 7.82812M27.2188 7.82812V25.1719C27.2188 28.6838 21.5238 31.5312 14.5 31.5312C7.47617 31.5312 1.78125 28.6838 1.78125 25.1719V7.82812M27.2188 7.82812V13.6094V7.82812ZM1.78125 7.82812V13.6094V7.82812ZM27.2188 13.6094V19.3906C27.2188 22.9025 21.5238 25.75 14.5 25.75C7.47617 25.75 1.78125 22.9025 1.78125 19.3906V13.6094M27.2188 13.6094C27.2188 17.1213 21.5238 19.9688 14.5 19.9688C7.47617 19.9688 1.78125 17.1213 1.78125 13.6094" fill="#43434A"/>
<path d="M27.2187 7.82812C27.2187 11.34 21.5238 14.1875 14.5 14.1875C7.47617 14.1875 1.78125 11.34 1.78125 7.82812M27.2187 7.82812C27.2187 4.31621 21.5238 1.46875 14.5 1.46875C7.47617 1.46875 1.78125 4.31621 1.78125 7.82812M27.2187 7.82812V25.1719C27.2187 28.6838 21.5238 31.5312 14.5 31.5312C7.47617 31.5312 1.78125 28.6838 1.78125 25.1719V7.82812M27.2187 7.82812V13.6094M1.78125 7.82812V13.6094M27.2187 13.6094V19.3906C27.2187 22.9025 21.5238 25.75 14.5 25.75C7.47617 25.75 1.78125 22.9025 1.78125 19.3906V13.6094M27.2187 13.6094C27.2187 17.1213 21.5238 19.9687 14.5 19.9687C7.47617 19.9687 1.78125 17.1213 1.78125 13.6094" stroke="#7E7E86" stroke-width="2.8" stroke-linecap="round" stroke-linejoin="round"/>
</svg>
