<svg width="180" height="51" viewBox="0 0 180 51" fill="none" xmlns="http://www.w3.org/2000/svg">
<path d="M78.4525 35V21.8318L73.3095 31.6373H71.1337L65.9907 21.8318V35H62.0911V14.9368H66.2733L72.2075 26.353L78.1982 14.9368H82.3521V35H78.4525ZM86.1735 35V20.1928H89.9601V35H86.1735ZM86.1735 18.13V14.3717H89.9601V18.13H86.1735ZM92.4718 27.5964C92.4718 26.1647 92.7543 24.8742 93.3195 23.7251C93.8847 22.5571 94.6665 21.634 95.6649 20.9558C96.6634 20.2776 97.8031 19.9385 99.0841 19.9385C100.177 19.9385 101.156 20.2116 102.023 20.758C102.908 21.2854 103.596 21.9636 104.086 22.7925V14.3717H107.872V30.7613C107.872 31.1569 107.938 31.4395 108.07 31.609C108.202 31.7786 108.428 31.8822 108.748 31.9199V35C108.089 35.1319 107.552 35.1978 107.138 35.1978C106.459 35.1978 105.894 35.0283 105.442 34.6892C105.009 34.3501 104.764 33.9074 104.707 33.361L104.651 32.4285C104.105 33.3516 103.361 34.0581 102.419 34.5479C101.495 35.0377 100.525 35.2826 99.508 35.2826C98.4907 35.2826 97.5488 35.0848 96.6822 34.6892C95.8345 34.2935 95.0903 33.7472 94.4498 33.0502C93.8282 32.3532 93.3383 31.5431 92.9804 30.62C92.6413 29.6781 92.4718 28.6702 92.4718 27.5964ZM104.086 29.5745V26.0422C103.897 25.4959 103.596 25.0061 103.182 24.5728C102.767 24.1395 102.306 23.8004 101.797 23.5555C101.288 23.2918 100.78 23.1599 100.271 23.1599C99.687 23.1599 99.1595 23.2823 98.6885 23.5272C98.2176 23.7721 97.8031 24.1018 97.4452 24.5163C97.1061 24.9307 96.8423 25.4111 96.654 25.9574C96.4844 26.5038 96.3996 27.0783 96.3996 27.6812C96.3996 28.284 96.4938 28.8586 96.6822 29.4049C96.8894 29.9324 97.1814 30.3939 97.5582 30.7896C97.935 31.1852 98.3683 31.496 98.8581 31.7221C99.3667 31.9481 99.913 32.0612 100.497 32.0612C100.855 32.0612 101.213 32.0047 101.571 31.8916C101.948 31.7597 102.296 31.5902 102.616 31.383C102.955 31.1569 103.247 30.8932 103.492 30.5917C103.756 30.2715 103.954 29.9324 104.086 29.5745ZM125.351 35H121.564V26.6921C121.564 25.5053 121.357 24.6387 120.943 24.0924C120.528 23.5461 119.954 23.2729 119.219 23.2729C118.71 23.2729 118.192 23.4048 117.665 23.6685C117.156 23.9323 116.694 24.2996 116.28 24.7706C115.866 25.2227 115.564 25.7502 115.376 26.353V35H111.589V20.1928H115.008V22.9338C115.385 22.2933 115.866 21.7564 116.45 21.3231C117.034 20.871 117.702 20.5319 118.456 20.3058C119.228 20.0609 120.038 19.9385 120.886 19.9385C121.809 19.9385 122.563 20.108 123.147 20.4471C123.75 20.7674 124.202 21.2101 124.503 21.7752C124.823 22.3216 125.04 22.9432 125.153 23.6403C125.285 24.3373 125.351 25.0438 125.351 25.7596V35ZM128.643 35V20.1928H132.43V35H128.643ZM128.643 18.13V14.3717H132.43V18.13H128.643ZM141.639 35.0848C140.659 35.0848 139.755 34.8964 138.926 34.5196C138.116 34.124 137.409 33.5777 136.807 32.8806C136.223 32.1836 135.77 31.383 135.45 30.4787C135.13 29.5745 134.97 28.6137 134.97 27.5964C134.97 26.5226 135.139 25.5241 135.478 24.6011C135.818 23.678 136.289 22.8679 136.891 22.1709C137.513 21.455 138.238 20.9087 139.067 20.5319C139.915 20.1363 140.848 19.9385 141.865 19.9385C143.014 19.9385 144.022 20.2022 144.888 20.7297C145.755 21.2383 146.471 21.926 147.036 22.7925V20.1928H150.342V34.2935C150.342 35.763 149.984 37.0157 149.268 38.0519C148.571 39.1068 147.601 39.9075 146.358 40.4538C145.114 41.019 143.702 41.3015 142.119 41.3015C140.518 41.3015 139.161 41.0284 138.05 40.4821C136.938 39.9546 135.987 39.201 135.196 38.2214L137.259 36.2151C137.824 36.9121 138.53 37.4584 139.378 37.8541C140.245 38.2497 141.158 38.4475 142.119 38.4475C142.929 38.4475 143.664 38.2968 144.323 37.9953C145.001 37.7128 145.538 37.2606 145.934 36.639C146.348 36.0361 146.556 35.2543 146.556 34.2935V32.4285C146.066 33.2763 145.369 33.9356 144.465 34.4066C143.579 34.8587 142.637 35.0848 141.639 35.0848ZM142.91 32.0612C143.325 32.0612 143.72 31.9952 144.097 31.8634C144.474 31.7315 144.822 31.5525 145.143 31.3265C145.463 31.1004 145.746 30.8367 145.99 30.5352C146.235 30.215 146.424 29.8947 146.556 29.5745V26.0422C146.33 25.4582 146.009 24.9496 145.595 24.5163C145.199 24.083 144.747 23.7533 144.238 23.5272C143.749 23.2823 143.231 23.1599 142.684 23.1599C142.1 23.1599 141.573 23.2823 141.102 23.5272C140.631 23.7721 140.226 24.1207 139.887 24.5728C139.548 25.0061 139.284 25.4959 139.096 26.0422C138.926 26.5697 138.841 27.1254 138.841 27.7094C138.841 28.3123 138.945 28.8774 139.152 29.4049C139.359 29.9324 139.642 30.3939 140 30.7896C140.377 31.1852 140.81 31.496 141.3 31.7221C141.808 31.9481 142.345 32.0612 142.91 32.0612ZM167.517 35H163.731V26.6921C163.731 25.543 163.504 24.6858 163.052 24.1207C162.619 23.5555 162.016 23.2729 161.244 23.2729C160.792 23.2729 160.311 23.4048 159.803 23.6685C159.294 23.9323 158.832 24.2996 158.418 24.7706C158.022 25.2227 157.73 25.7502 157.542 26.353V35H153.755V14.3717H157.542V22.9338C158.088 21.9919 158.832 21.2572 159.774 20.7297C160.716 20.2022 161.743 19.9385 162.855 19.9385C163.815 19.9385 164.597 20.108 165.2 20.4471C165.803 20.7674 166.274 21.2101 166.613 21.7752C166.952 22.3216 167.187 22.9432 167.319 23.6403C167.451 24.3185 167.517 25.0249 167.517 25.7596V35ZM179.6 34.237C179.28 34.3689 178.893 34.5196 178.441 34.6892C177.989 34.8587 177.499 34.9906 176.972 35.0848C176.463 35.1978 175.945 35.2543 175.418 35.2543C174.721 35.2543 174.08 35.1319 173.496 34.887C172.912 34.6421 172.441 34.2559 172.083 33.7284C171.744 33.1821 171.575 32.4756 171.575 31.609V23.1034H169.625V20.1928H171.575V15.3889H175.361V20.1928H178.47V23.1034H175.361V30.3374C175.38 30.8461 175.521 31.2134 175.785 31.4395C176.049 31.6656 176.378 31.7786 176.774 31.7786C177.17 31.7786 177.556 31.7127 177.933 31.5808C178.309 31.4489 178.611 31.3359 178.837 31.2417L179.6 34.237Z" fill="url(#paint0_linear_28_544)"/>
<g filter="url(#filter0_i_28_544)">
<path fill-rule="evenodd" clip-rule="evenodd" d="M24 0C24.5 8.45455 30 25.3636 48 25.3636C40 25.8182 24 31.5 24 50.5909C24 31.5 8 25.8182 0 25.3636C18 25.3636 23.5 8.45455 24 0ZM24 14.0454C24.2224 17.8055 26.6685 25.3257 34.6739 25.3257C31.1159 25.5278 24 28.0548 24 36.5454C24 28.0548 16.8841 25.5278 13.3261 25.3257C21.3315 25.3257 23.7776 17.8055 24 14.0454Z" fill="#ff1c3d"/>
</g>
<defs>
<filter id="filter0_i_28_544" x="0" y="0" width="48" height="54.5908" filterUnits="userSpaceOnUse" color-interpolation-filters="sRGB">
<feFlood flood-opacity="0" result="BackgroundImageFix"/>
<feBlend mode="normal" in="SourceGraphic" in2="BackgroundImageFix" result="shape"/>
<feColorMatrix in="SourceAlpha" type="matrix" values="0 0 0 0 0 0 0 0 0 0 0 0 0 0 0 0 0 0 127 0" result="hardAlpha"/>
<feOffset dy="4"/>
<feGaussianBlur stdDeviation="2"/>
<feComposite in2="hardAlpha" operator="arithmetic" k2="-1" k3="1"/>
<feColorMatrix type="matrix" values="0 0 0 0 0.158194 0 0 0 0 0.566667 0 0 0 0 0.348631 0 0 0 1 0"/>
<feBlend mode="normal" in2="shape" result="effect1_innerShadow_28_544"/>
</filter>
<linearGradient id="paint0_linear_28_544" x1="67.4453" y1="19.9474" x2="179.933" y2="29.9632" gradientUnits="userSpaceOnUse">
<stop stop-color="white"/>
<stop offset="1" stop-color="white" stop-opacity="0.85"/>
</linearGradient>
</defs>
</svg>
