<svg width="14" height="16" viewBox="0 0 14 16" fill="none" xmlns="http://www.w3.org/2000/svg">
<path d="M0 1.65381C0 0.797813 0.917 0.255812 1.667 0.667812L13.207 7.01581C13.3834 7.11293 13.5305 7.2556 13.6329 7.42895C13.7354 7.6023 13.7894 7.79996 13.7894 8.00131C13.7894 8.20267 13.7354 8.40033 13.6329 8.57368C13.5305 8.74702 13.3834 8.8897 13.207 8.98681L1.667 15.3338C1.49576 15.428 1.30295 15.4759 1.10756 15.4728C0.912169 15.4698 0.720938 15.4159 0.552699 15.3165C0.38446 15.2171 0.245016 15.0756 0.148102 14.9059C0.0511872 14.7362 0.000144161 14.5442 0 14.3488V1.65381Z" fill="white"/>
</svg>
