<svg width="39" height="36" viewBox="0 0 39 36" fill="none" xmlns="http://www.w3.org/2000/svg">
<path d="M34.3077 11.8915C35.8944 12.4013 37 13.9162 37 15.6554V23.3482C37 25.3872 35.4797 27.1174 33.4462 27.2844C32.8359 27.3328 32.2256 27.3777 31.6154 27.4136V32.9615L26.2308 27.5769C23.8005 27.5769 21.3954 27.4782 19.0154 27.2844C18.4973 27.2425 17.9933 27.0946 17.5346 26.85M34.3077 11.8915C34.0303 11.8023 33.7437 11.7451 33.4533 11.721C28.6466 11.322 23.815 11.322 19.0082 11.721C16.9782 11.8897 15.4615 13.6182 15.4615 15.6554V23.3482C15.4615 24.8505 16.2872 26.1841 17.5346 26.85M34.3077 11.8915V8.52795C34.3077 5.61846 32.24 3.09667 29.3538 2.72154C25.6399 2.24014 21.8988 1.99913 18.1538 2C14.3577 2 10.619 2.2459 6.95385 2.72154C4.06769 3.09667 2 5.61846 2 8.52795V19.7028C2 22.6123 4.06769 25.1341 6.95385 25.5092C7.98949 25.6438 9.03051 25.7605 10.0769 25.8574V34.3077L17.5346 26.85" fill="#43434A"/>
<path d="M34.3077 11.8915C35.8944 12.4013 37 13.9162 37 15.6554V23.3482C37 25.3872 35.4797 27.1174 33.4462 27.2844C32.8359 27.3328 32.2256 27.3777 31.6154 27.4136V32.9615L26.2308 27.5769C23.8005 27.5769 21.3954 27.4782 19.0154 27.2844C18.4973 27.2425 17.9933 27.0946 17.5346 26.85M34.3077 11.8915C34.0304 11.8023 33.7437 11.7451 33.4533 11.721C28.6466 11.322 23.815 11.322 19.0082 11.721C16.9782 11.8897 15.4615 13.6182 15.4615 15.6554V23.3482C15.4615 24.8505 16.2872 26.1841 17.5346 26.85M34.3077 11.8915V8.52795C34.3077 5.61846 32.24 3.09667 29.3538 2.72154C25.6399 2.24014 21.8988 1.99913 18.1538 2C14.3577 2 10.619 2.2459 6.95385 2.72154C4.06769 3.09667 2 5.61846 2 8.52795V19.7028C2 22.6123 4.06769 25.1341 6.95385 25.5092C7.98949 25.6438 9.03051 25.7605 10.0769 25.8574V34.3077L17.5346 26.85" stroke="#7E7E86" stroke-width="2.8" stroke-linecap="round" stroke-linejoin="round"/>
</svg>
