<svg width="370" height="427" viewBox="0 0 370 427" fill="none" xmlns="http://www.w3.org/2000/svg">
<g clip-path="url(#clip0_13_1525)">
<rect x="-38.5417" y="-11.0001" width="447.083" height="555.857" fill="#171819"/>
<g opacity="0.1">
<rect x="67.662" y="-70.0973" width="0.856481" height="614.954" fill="#D9D9D9"/>
<rect x="187.569" y="-70.0973" width="0.856481" height="614.954" fill="#D9D9D9"/>
<rect x="307.477" y="-70.0973" width="0.856481" height="614.954" fill="#D9D9D9"/>
<rect x="-38.5417" y="26.6851" width="447.083" height="0.856481" fill="#D9D9D9"/>
<rect x="-38.5417" y="126.037" width="447.083" height="0.856481" fill="#D9D9D9"/>
<rect x="-38.5417" y="224.532" width="447.083" height="0.856481" fill="#D9D9D9"/>
<rect x="-38.5417" y="323.028" width="447.083" height="0.856481" fill="#D9D9D9"/>
<rect x="-38.5417" y="421.523" width="447.083" height="0.856481" fill="#D9D9D9"/>
<rect x="-38.5417" y="44.6711" width="447.083" height="0.856481" fill="#D9D9D9"/>
<rect x="-38.5417" y="144.023" width="447.083" height="0.856481" fill="#D9D9D9"/>
<rect x="-38.5417" y="242.518" width="447.083" height="0.856481" fill="#D9D9D9"/>
<rect x="-38.5417" y="341.014" width="447.083" height="0.856481" fill="#D9D9D9"/>
</g>
<rect y="2" width="370" height="100" fill="url(#paint0_linear_13_1525)"/>
<g filter="url(#filter0_d_13_1525)">
<rect x="67.662" y="45.5277" width="240.671" height="81.3657" rx="14.5602" fill="#252B2F"/>
<rect x="68.0903" y="45.956" width="239.815" height="80.5093" rx="14.1319" stroke="#ff1c3d" stroke-width="0.856481"/>
</g>
<rect x="77.0833" y="54.949" width="221.829" height="62.5231" rx="8.56481" fill="#252B2F"/>
<rect x="77.5116" y="55.3772" width="220.972" height="61.6667" rx="8.13657" stroke="#ff1c3d" stroke-opacity="0.38" stroke-width="0.856481"/>
<rect opacity="0.2" x="89.9306" y="67.7961" width="37.6852" height="36.8287" rx="7.70833" fill="#6DEAA6"/>
<path d="M111.22 89.9243C112.816 89.7358 114.384 89.36 115.891 88.8049C114.615 87.394 113.909 85.56 113.912 83.6592V83.0611V83.0184C113.912 81.6586 113.371 80.3546 112.407 79.3931C111.443 78.4316 110.136 77.8915 108.773 77.8915C107.41 77.8915 106.103 78.4316 105.139 79.3931C104.176 80.3546 103.634 81.6586 103.634 83.0184V83.6592C103.637 85.5601 102.931 87.3941 101.654 88.8049C103.138 89.3518 104.703 89.732 106.326 89.9243M111.22 89.9243C109.595 90.1166 107.952 90.1166 106.326 89.9243M111.22 89.9243C111.344 90.3087 111.374 90.7167 111.31 91.1152C111.245 91.5136 111.087 91.8913 110.849 92.2173C110.61 92.5434 110.298 92.8087 109.937 92.9915C109.577 93.1744 109.178 93.2697 108.773 93.2697C108.369 93.2697 107.97 93.1744 107.609 92.9915C107.248 92.8087 106.936 92.5434 106.698 92.2173C106.459 91.8913 106.301 91.5136 106.237 91.1152C106.172 90.7167 106.203 90.3087 106.326 89.9243M101.171 81.7366C101.413 80.3054 102.056 78.9719 103.028 77.8915M114.518 77.8915C115.49 78.9719 116.134 80.3054 116.375 81.7366" stroke="#25A763" stroke-width="1.28472" stroke-linecap="round" stroke-linejoin="round"/>
<rect opacity="0.2" x="137.894" y="70.3656" width="78.7963" height="10.2778" rx="5.13889" fill="#6DEAA6"/>
<rect opacity="0.2" x="137.894" y="91.7776" width="136.181" height="10.2778" rx="5.13889" fill="#6DEAA6"/>
<rect x="68.0903" y="144.451" width="239.815" height="80.5093" rx="14.1319" fill="#252B2F" stroke="#151A1E" stroke-width="0.856481"/>
<rect x="77.5116" y="153.873" width="220.972" height="61.6667" rx="10.706" stroke="#495760" stroke-width="0.856481"/>
<rect x="89.9305" y="166.292" width="37.6852" height="36.8287" rx="7.70833" fill="#313A40"/>
<path opacity="0.6" d="M111.22 188.19C112.816 188.001 114.384 187.625 115.891 187.07C114.615 185.659 113.909 183.825 113.912 181.924V181.326V181.284C113.912 179.924 113.371 178.62 112.407 177.658C111.443 176.697 110.136 176.157 108.773 176.157C107.41 176.157 106.103 176.697 105.139 177.658C104.176 178.62 103.634 179.924 103.634 181.284V181.924C103.637 183.825 102.931 185.659 101.654 187.07C103.138 187.617 104.703 187.997 106.326 188.19M111.22 188.19C109.595 188.382 107.952 188.382 106.326 188.19M111.22 188.19C111.344 188.574 111.374 188.982 111.31 189.38C111.245 189.779 111.087 190.157 110.849 190.483C110.61 190.809 110.298 191.074 109.937 191.257C109.577 191.44 109.178 191.535 108.773 191.535C108.369 191.535 107.97 191.44 107.609 191.257C107.248 191.074 106.936 190.809 106.698 190.483C106.459 190.157 106.301 189.779 106.237 189.38C106.172 188.982 106.203 188.574 106.326 188.19M101.171 180.002C101.413 178.571 102.056 177.237 103.028 176.157M114.518 176.157C115.49 177.237 116.134 178.571 116.375 180.002" stroke="#495760" stroke-width="1.28472" stroke-linecap="round" stroke-linejoin="round"/>
<rect x="137.894" y="168.861" width="78.7963" height="10.2778" rx="5.13889" fill="#313A40"/>
<rect x="137.894" y="190.273" width="136.181" height="10.2778" rx="5.13889" fill="#313A40"/>
<rect x="68.0903" y="242.947" width="239.815" height="80.5093" rx="14.1319" fill="#252B2F" stroke="#151A1E" stroke-width="0.856481"/>
<rect x="77.5116" y="252.368" width="220.972" height="61.6667" rx="10.706" stroke="#495760" stroke-width="0.856481"/>
<rect x="89.9305" y="264.787" width="37.6852" height="36.8287" rx="7.70833" fill="#313A40"/>
<path opacity="0.6" d="M111.22 286.455C112.816 286.266 114.384 285.891 115.891 285.335C114.615 283.925 113.909 282.091 113.912 280.19V279.592V279.549C113.912 278.189 113.371 276.885 112.407 275.924C111.443 274.962 110.136 274.422 108.773 274.422C107.41 274.422 106.103 274.962 105.139 275.924C104.176 276.885 103.634 278.189 103.634 279.549V280.19C103.637 282.091 102.931 283.925 101.654 285.335C103.138 285.882 104.703 286.263 106.326 286.455M111.22 286.455C109.595 286.647 107.952 286.647 106.326 286.455M111.22 286.455C111.344 286.839 111.374 287.247 111.31 287.646C111.245 288.044 111.087 288.422 110.849 288.748C110.61 289.074 110.298 289.339 109.937 289.522C109.577 289.705 109.178 289.8 108.773 289.8C108.369 289.8 107.97 289.705 107.609 289.522C107.248 289.339 106.936 289.074 106.698 288.748C106.459 288.422 106.301 288.044 106.237 287.646C106.172 287.247 106.203 286.839 106.326 286.455M101.171 278.267C101.413 276.836 102.056 275.502 103.028 274.422M114.518 274.422C115.49 275.502 116.134 276.836 116.375 278.267" stroke="#495760" stroke-width="1.28472" stroke-linecap="round" stroke-linejoin="round"/>
<rect x="137.894" y="267.356" width="78.7963" height="10.2778" rx="5.13889" fill="#313A40"/>
<rect x="137.894" y="288.768" width="136.181" height="10.2778" rx="5.13889" fill="#313A40"/>
<rect x="68.0903" y="341.442" width="239.815" height="80.5093" rx="14.1319" fill="#252B2F" stroke="#151A1E" stroke-width="0.856481"/>
<rect x="77.5116" y="350.863" width="220.972" height="61.6667" rx="10.706" stroke="#495760" stroke-width="0.856481"/>
<rect x="89.9305" y="363.282" width="37.6852" height="36.8287" rx="7.70833" fill="#313A40"/>
<path opacity="0.6" d="M111.22 384.72C112.816 384.532 114.384 384.156 115.891 383.601C114.615 382.19 113.909 380.356 113.912 378.455V377.857V377.814C113.912 376.454 113.371 375.15 112.407 374.189C111.443 373.227 110.136 372.687 108.773 372.687C107.41 372.687 106.103 373.227 105.139 374.189C104.176 375.15 103.634 376.454 103.634 377.814V378.455C103.637 380.356 102.931 382.19 101.654 383.601C103.138 384.148 104.703 384.528 106.326 384.72M111.22 384.72C109.595 384.912 107.952 384.912 106.326 384.72M111.22 384.72C111.344 385.104 111.374 385.512 111.31 385.911C111.245 386.309 111.087 386.687 110.849 387.013C110.61 387.339 110.298 387.604 109.937 387.787C109.577 387.97 109.178 388.065 108.773 388.065C108.369 388.065 107.97 387.97 107.609 387.787C107.248 387.604 106.936 387.339 106.698 387.013C106.459 386.687 106.301 386.309 106.237 385.911C106.172 385.512 106.203 385.104 106.326 384.72M101.171 376.532C101.413 375.101 102.056 373.768 103.028 372.687M114.518 372.687C115.49 373.768 116.134 375.101 116.375 376.532" stroke="#495760" stroke-width="1.28472" stroke-linecap="round" stroke-linejoin="round"/>
<rect x="137.894" y="365.852" width="78.7963" height="10.2778" rx="5.13889" fill="#313A40"/>
<rect x="137.894" y="387.264" width="136.181" height="10.2778" rx="5.13889" fill="#313A40"/>
<circle cx="308.333" cy="45.5276" r="12.8472" fill="#ff1c3d"/>
<path d="M305.867 49.9629V48.3321H307.758V43.3029H306.127V42.0559C306.602 41.9645 307.004 41.8549 307.333 41.727C307.662 41.5991 307.982 41.4438 308.292 41.261H309.772V48.3321H311.403V49.9629H305.867Z" fill="#252B2F"/>
<rect x="370" y="432" width="370" height="143" transform="rotate(-180 370 432)" fill="url(#paint1_linear_13_1525)"/>
</g>
<defs>
<filter id="filter0_d_13_1525" x="48.8195" y="39.5323" width="276.644" height="117.338" filterUnits="userSpaceOnUse" color-interpolation-filters="sRGB">
<feFlood flood-opacity="0" result="BackgroundImageFix"/>
<feColorMatrix in="SourceAlpha" type="matrix" values="0 0 0 0 0 0 0 0 0 0 0 0 0 0 0 0 0 0 127 0" result="hardAlpha"/>
<feOffset dx="-0.856481" dy="11.9907"/>
<feGaussianBlur stdDeviation="8.99306"/>
<feComposite in2="hardAlpha" operator="out"/>
<feColorMatrix type="matrix" values="0 0 0 0 0 0 0 0 0 0 0 0 0 0 0 0 0 0 0.25 0"/>
<feBlend mode="normal" in2="BackgroundImageFix" result="effect1_dropShadow_13_1525"/>
<feBlend mode="normal" in="SourceGraphic" in2="effect1_dropShadow_13_1525" result="shape"/>
</filter>
<linearGradient id="paint0_linear_13_1525" x1="185" y1="2" x2="185" y2="102" gradientUnits="userSpaceOnUse">
<stop stop-color="#171819"/>
<stop offset="1" stop-color="#171819" stop-opacity="0"/>
</linearGradient>
<linearGradient id="paint1_linear_13_1525" x1="555" y1="448" x2="555" y2="575" gradientUnits="userSpaceOnUse">
<stop stop-color="#171819"/>
<stop offset="1" stop-color="#171819" stop-opacity="0"/>
</linearGradient>
<clipPath id="clip0_13_1525">
<rect width="370" height="427" rx="6" fill="white"/>
</clipPath>
</defs>
</svg>
