<svg width="22" height="20" viewBox="0 0 22 20" fill="none" xmlns="http://www.w3.org/2000/svg">
<path d="M16.059 13.521C16.5268 13.2015 17.0755 13.0211 17.6416 13.0004C18.2076 12.9798 18.768 13.1199 19.2578 13.4044C19.7476 13.689 20.1469 14.1064 20.4093 14.6084C20.6718 15.1104 20.7868 15.6764 20.741 16.241C19.5412 16.6603 18.2668 16.8235 17 16.72C16.9961 15.5866 16.6697 14.4768 16.059 13.522C15.5169 12.6718 14.7691 11.972 13.8848 11.4875C13.0005 11.003 12.0083 10.7493 11 10.75C9.99184 10.7495 8.99983 11.0032 8.11573 11.4877C7.23163 11.9723 6.484 12.6719 5.942 13.522M16.999 16.719L17 16.75C17 16.975 16.988 17.197 16.963 17.416C15.1484 18.4571 13.0921 19.0033 11 19C8.83 19 6.793 18.424 5.037 17.416C5.01129 17.1846 4.99894 16.9519 5 16.719M5 16.719C3.73363 16.8263 2.45991 16.6637 1.261 16.242C1.21535 15.6776 1.33039 15.1117 1.59283 14.6099C1.85526 14.1081 2.25437 13.6908 2.744 13.4063C3.23364 13.1218 3.7938 12.9817 4.35972 13.0021C4.92564 13.0226 5.47421 13.2028 5.942 13.522M5 16.719C5.00359 15.5857 5.33162 14.4769 5.942 13.522M14 4.75C14 5.54565 13.6839 6.30871 13.1213 6.87132C12.5587 7.43393 11.7956 7.75 11 7.75C10.2044 7.75 9.44129 7.43393 8.87868 6.87132C8.31607 6.30871 8 5.54565 8 4.75C8 3.95435 8.31607 3.19129 8.87868 2.62868C9.44129 2.06607 10.2044 1.75 11 1.75C11.7956 1.75 12.5587 2.06607 13.1213 2.62868C13.6839 3.19129 14 3.95435 14 4.75ZM20 7.75C20 8.04547 19.9418 8.33806 19.8287 8.61104C19.7157 8.88402 19.5499 9.13206 19.341 9.34099C19.1321 9.54992 18.884 9.71566 18.611 9.82873C18.3381 9.9418 18.0455 10 17.75 10C17.4545 10 17.1619 9.9418 16.889 9.82873C16.616 9.71566 16.3679 9.54992 16.159 9.34099C15.9501 9.13206 15.7843 8.88402 15.6713 8.61104C15.5582 8.33806 15.5 8.04547 15.5 7.75C15.5 7.15326 15.7371 6.58097 16.159 6.15901C16.581 5.73705 17.1533 5.5 17.75 5.5C18.3467 5.5 18.919 5.73705 19.341 6.15901C19.7629 6.58097 20 7.15326 20 7.75ZM6.5 7.75C6.5 8.04547 6.4418 8.33806 6.32873 8.61104C6.21566 8.88402 6.04992 9.13206 5.84099 9.34099C5.63206 9.54992 5.38402 9.71566 5.11104 9.82873C4.83806 9.9418 4.54547 10 4.25 10C3.95453 10 3.66195 9.9418 3.38896 9.82873C3.11598 9.71566 2.86794 9.54992 2.65901 9.34099C2.45008 9.13206 2.28434 8.88402 2.17127 8.61104C2.0582 8.33806 2 8.04547 2 7.75C2 7.15326 2.23705 6.58097 2.65901 6.15901C3.08097 5.73705 3.65326 5.5 4.25 5.5C4.84674 5.5 5.41903 5.73705 5.84099 6.15901C6.26295 6.58097 6.5 7.15326 6.5 7.75Z" stroke="#7E7E86" stroke-width="2" stroke-linecap="round" stroke-linejoin="round"/>
</svg>
