<svg width="22" height="22" viewBox="0 0 22 22" fill="none" xmlns="http://www.w3.org/2000/svg">
<path d="M8.94336 12C9.37281 12.5741 9.92072 13.0492 10.5499 13.3929C11.1791 13.7367 11.8749 13.9411 12.59 13.9923C13.3052 14.0435 14.0229 13.9404 14.6947 13.6898C15.3665 13.4392 15.9765 13.0471 16.4834 12.54L19.4834 9.54C20.3942 8.59699 20.8981 7.33397 20.8867 6.02299C20.8753 4.71201 20.3495 3.45794 19.4225 2.5309C18.4954 1.60386 17.2413 1.07802 15.9304 1.06663C14.6194 1.05523 13.3564 1.55921 12.4134 2.47L10.6934 4.18M12.9436 10C12.5141 9.42588 11.9662 8.95083 11.337 8.60707C10.7078 8.26331 10.0121 8.0589 9.29691 8.00768C8.58177 7.95646 7.86397 8.05964 7.19221 8.31023C6.52045 8.56082 5.91044 8.95294 5.40356 9.46001L2.40356 12.46C1.49277 13.403 0.988797 14.666 1.00019 15.977C1.01158 17.288 1.53743 18.5421 2.46447 19.4691C3.39151 20.3961 4.64557 20.922 5.95655 20.9334C7.26754 20.9448 8.53055 20.4408 9.47356 19.53L11.1836 17.82" stroke="white" stroke-width="2" stroke-linecap="round" stroke-linejoin="round"/>
</svg>
