<?xml version="1.0" standalone="no"?>
<!DOCTYPE svg PUBLIC "-//W3C//DTD SVG 20010904//EN"
 "http://www.w3.org/TR/2001/REC-SVG-20010904/DTD/svg10.dtd">
<svg version="1.0" xmlns="http://www.w3.org/2000/svg"
 width="520.000000pt" height="520.000000pt" viewBox="0 0 520.000000 520.000000"
 preserveAspectRatio="xMidYMid meet">
<metadata>
Created by potrace 1.14, written by Peter Selinger 2001-2017
</metadata>
<g transform="translate(0.000000,520.000000) scale(0.100000,-0.100000)"
fill="#000000" stroke="none">
<path d="M714 4595 c-97 -17 -136 -31 -228 -78 -157 -81 -307 -255 -365 -425
l-26 -77 -3 -1325 c-2 -830 1 -1366 7 -1435 17 -190 77 -313 220 -455 95 -94
174 -142 301 -182 l75 -23 1795 0 1795 0 70 22 c222 71 394 267 435 497 5 33
10 184 10 337 l0 276 38 7 c61 9 176 72 217 117 21 23 49 67 63 98 34 74 40
182 36 666 -3 396 -4 408 -57 491 -50 80 -150 149 -251 175 l-46 11 0 365 c0
298 -3 377 -16 436 -41 183 -183 355 -369 448 -148 73 -28 69 -1925 68 -1350
-1 -1720 -4 -1776 -14z m206 -375 c0 -79 0 -80 -27 -86 -79 -19 -191 -100
-232 -168 -10 -17 -27 -53 -36 -81 -16 -46 -18 -143 -19 -1300 -2 -923 1
-1263 10 -1300 17 -73 41 -125 69 -149 13 -12 31 -41 40 -66 18 -52 60 -101
124 -142 l46 -30 -100 4 c-89 4 -107 8 -163 36 -104 54 -179 142 -214 255 -17
56 -18 130 -18 1387 0 947 3 1344 11 1382 26 121 114 240 218 292 68 35 110
44 209 45 l82 1 0 -80z m2900 -1345 c0 -63 -3 -115 -7 -116 -108 -12 -180 -59
-219 -144 -69 -148 22 -327 179 -350 l47 -7 0 -115 0 -115 -67 4 c-184 10
-354 173 -394 376 -25 130 9 286 86 391 87 118 209 189 328 190 l47 1 0 -115z"/>
</g>
</svg>
